<?xml version="1.0" encoding="utf-8" standalone="no"?>
<!DOCTYPE svg PUBLIC "-//W3C//DTD SVG 1.1//EN"
  "http://www.w3.org/Graphics/SVG/1.1/DTD/svg11.dtd">
<svg height="281.634375pt" version="1.1" viewBox="0 0 891.165625 281.634375" width="891.165625pt" xmlns="http://www.w3.org/2000/svg" xmlns:xlink="http://www.w3.org/1999/xlink">
 <metadata>
  <rdf:RDF xmlns:cc="http://creativecommons.org/ns#" xmlns:dc="http://purl.org/dc/elements/1.1/" xmlns:rdf="http://www.w3.org/1999/02/22-rdf-syntax-ns#">
   <cc:Work>
    <dc:type rdf:resource="http://purl.org/dc/dcmitype/StillImage"/>
    <dc:date>2021-09-08T15:53:15.181017</dc:date>
    <dc:format>image/svg+xml</dc:format>
    <dc:creator>
     <cc:Agent>
      <dc:title>Matplotlib v3.4.2, https://matplotlib.org/</dc:title>
     </cc:Agent>
    </dc:creator>
   </cc:Work>
  </rdf:RDF>
 </metadata>
 <defs>
  <style type="text/css">*{stroke-linecap:butt;stroke-linejoin:round;}</style>
 </defs>
 <g id="figure_1">
  <g id="patch_1">
   <path d="M 0 281.634375 
L 891.165625 281.634375 
L 891.165625 0 
L 0 0 
z
" style="fill:#ffffff;"/>
  </g>
  <g id="axes_1">
   <g id="patch_2">
    <path d="M 46.965625 244.078125 
L 883.965625 244.078125 
L 883.965625 22.318125 
L 46.965625 22.318125 
z
" style="fill:#ffffff;"/>
   </g>
   <g id="matplotlib.axis_1">
    <g id="xtick_1">
     <g id="line2d_1">
      <defs>
       <path d="M 0 0 
L 0 3.5 
" id="m2bb2dde51a" style="stroke:#000000;stroke-width:0.8;"/>
      </defs>
      <g>
       <use style="stroke:#000000;stroke-width:0.8;" x="85.011063" xlink:href="#m2bb2dde51a" y="244.078125"/>
      </g>
     </g>
     <g id="text_1">
      <!-- 0 -->
      <g transform="translate(81.829813 258.676562)scale(0.1 -0.1)">
       <defs>
        <path d="M 2034 4250 
Q 1547 4250 1301 3770 
Q 1056 3291 1056 2328 
Q 1056 1369 1301 889 
Q 1547 409 2034 409 
Q 2525 409 2770 889 
Q 3016 1369 3016 2328 
Q 3016 3291 2770 3770 
Q 2525 4250 2034 4250 
z
M 2034 4750 
Q 2819 4750 3233 4129 
Q 3647 3509 3647 2328 
Q 3647 1150 3233 529 
Q 2819 -91 2034 -91 
Q 1250 -91 836 529 
Q 422 1150 422 2328 
Q 422 3509 836 4129 
Q 1250 4750 2034 4750 
z
" id="DejaVuSans-30" transform="scale(0.015625)"/>
       </defs>
       <use xlink:href="#DejaVuSans-30"/>
      </g>
     </g>
    </g>
    <g id="xtick_2">
     <g id="line2d_2">
      <g>
       <use style="stroke:#000000;stroke-width:0.8;" x="237.794874" xlink:href="#m2bb2dde51a" y="244.078125"/>
      </g>
     </g>
     <g id="text_2">
      <!-- 20 -->
      <g transform="translate(231.432374 258.676562)scale(0.1 -0.1)">
       <defs>
        <path d="M 1228 531 
L 3431 531 
L 3431 0 
L 469 0 
L 469 531 
Q 828 903 1448 1529 
Q 2069 2156 2228 2338 
Q 2531 2678 2651 2914 
Q 2772 3150 2772 3378 
Q 2772 3750 2511 3984 
Q 2250 4219 1831 4219 
Q 1534 4219 1204 4116 
Q 875 4013 500 3803 
L 500 4441 
Q 881 4594 1212 4672 
Q 1544 4750 1819 4750 
Q 2544 4750 2975 4387 
Q 3406 4025 3406 3419 
Q 3406 3131 3298 2873 
Q 3191 2616 2906 2266 
Q 2828 2175 2409 1742 
Q 1991 1309 1228 531 
z
" id="DejaVuSans-32" transform="scale(0.015625)"/>
       </defs>
       <use xlink:href="#DejaVuSans-32"/>
       <use x="63.623047" xlink:href="#DejaVuSans-30"/>
      </g>
     </g>
    </g>
    <g id="xtick_3">
     <g id="line2d_3">
      <g>
       <use style="stroke:#000000;stroke-width:0.8;" x="390.578685" xlink:href="#m2bb2dde51a" y="244.078125"/>
      </g>
     </g>
     <g id="text_3">
      <!-- 40 -->
      <g transform="translate(384.216185 258.676562)scale(0.1 -0.1)">
       <defs>
        <path d="M 2419 4116 
L 825 1625 
L 2419 1625 
L 2419 4116 
z
M 2253 4666 
L 3047 4666 
L 3047 1625 
L 3713 1625 
L 3713 1100 
L 3047 1100 
L 3047 0 
L 2419 0 
L 2419 1100 
L 313 1100 
L 313 1709 
L 2253 4666 
z
" id="DejaVuSans-34" transform="scale(0.015625)"/>
       </defs>
       <use xlink:href="#DejaVuSans-34"/>
       <use x="63.623047" xlink:href="#DejaVuSans-30"/>
      </g>
     </g>
    </g>
    <g id="xtick_4">
     <g id="line2d_4">
      <g>
       <use style="stroke:#000000;stroke-width:0.8;" x="543.362495" xlink:href="#m2bb2dde51a" y="244.078125"/>
      </g>
     </g>
     <g id="text_4">
      <!-- 60 -->
      <g transform="translate(536.999995 258.676562)scale(0.1 -0.1)">
       <defs>
        <path d="M 2113 2584 
Q 1688 2584 1439 2293 
Q 1191 2003 1191 1497 
Q 1191 994 1439 701 
Q 1688 409 2113 409 
Q 2538 409 2786 701 
Q 3034 994 3034 1497 
Q 3034 2003 2786 2293 
Q 2538 2584 2113 2584 
z
M 3366 4563 
L 3366 3988 
Q 3128 4100 2886 4159 
Q 2644 4219 2406 4219 
Q 1781 4219 1451 3797 
Q 1122 3375 1075 2522 
Q 1259 2794 1537 2939 
Q 1816 3084 2150 3084 
Q 2853 3084 3261 2657 
Q 3669 2231 3669 1497 
Q 3669 778 3244 343 
Q 2819 -91 2113 -91 
Q 1303 -91 875 529 
Q 447 1150 447 2328 
Q 447 3434 972 4092 
Q 1497 4750 2381 4750 
Q 2619 4750 2861 4703 
Q 3103 4656 3366 4563 
z
" id="DejaVuSans-36" transform="scale(0.015625)"/>
       </defs>
       <use xlink:href="#DejaVuSans-36"/>
       <use x="63.623047" xlink:href="#DejaVuSans-30"/>
      </g>
     </g>
    </g>
    <g id="xtick_5">
     <g id="line2d_5">
      <g>
       <use style="stroke:#000000;stroke-width:0.8;" x="696.146306" xlink:href="#m2bb2dde51a" y="244.078125"/>
      </g>
     </g>
     <g id="text_5">
      <!-- 80 -->
      <g transform="translate(689.783806 258.676562)scale(0.1 -0.1)">
       <defs>
        <path d="M 2034 2216 
Q 1584 2216 1326 1975 
Q 1069 1734 1069 1313 
Q 1069 891 1326 650 
Q 1584 409 2034 409 
Q 2484 409 2743 651 
Q 3003 894 3003 1313 
Q 3003 1734 2745 1975 
Q 2488 2216 2034 2216 
z
M 1403 2484 
Q 997 2584 770 2862 
Q 544 3141 544 3541 
Q 544 4100 942 4425 
Q 1341 4750 2034 4750 
Q 2731 4750 3128 4425 
Q 3525 4100 3525 3541 
Q 3525 3141 3298 2862 
Q 3072 2584 2669 2484 
Q 3125 2378 3379 2068 
Q 3634 1759 3634 1313 
Q 3634 634 3220 271 
Q 2806 -91 2034 -91 
Q 1263 -91 848 271 
Q 434 634 434 1313 
Q 434 1759 690 2068 
Q 947 2378 1403 2484 
z
M 1172 3481 
Q 1172 3119 1398 2916 
Q 1625 2713 2034 2713 
Q 2441 2713 2670 2916 
Q 2900 3119 2900 3481 
Q 2900 3844 2670 4047 
Q 2441 4250 2034 4250 
Q 1625 4250 1398 4047 
Q 1172 3844 1172 3481 
z
" id="DejaVuSans-38" transform="scale(0.015625)"/>
       </defs>
       <use xlink:href="#DejaVuSans-38"/>
       <use x="63.623047" xlink:href="#DejaVuSans-30"/>
      </g>
     </g>
    </g>
    <g id="xtick_6">
     <g id="line2d_6">
      <g>
       <use style="stroke:#000000;stroke-width:0.8;" x="848.930116" xlink:href="#m2bb2dde51a" y="244.078125"/>
      </g>
     </g>
     <g id="text_6">
      <!-- 100 -->
      <g transform="translate(839.386366 258.676562)scale(0.1 -0.1)">
       <defs>
        <path d="M 794 531 
L 1825 531 
L 1825 4091 
L 703 3866 
L 703 4441 
L 1819 4666 
L 2450 4666 
L 2450 531 
L 3481 531 
L 3481 0 
L 794 0 
L 794 531 
z
" id="DejaVuSans-31" transform="scale(0.015625)"/>
       </defs>
       <use xlink:href="#DejaVuSans-31"/>
       <use x="63.623047" xlink:href="#DejaVuSans-30"/>
       <use x="127.246094" xlink:href="#DejaVuSans-30"/>
      </g>
     </g>
    </g>
    <g id="text_7">
     <!-- Portion of bit flips (%) -->
     <g transform="translate(411.271094 272.354687)scale(0.1 -0.1)">
      <defs>
       <path d="M 1259 4147 
L 1259 2394 
L 2053 2394 
Q 2494 2394 2734 2622 
Q 2975 2850 2975 3272 
Q 2975 3691 2734 3919 
Q 2494 4147 2053 4147 
L 1259 4147 
z
M 628 4666 
L 2053 4666 
Q 2838 4666 3239 4311 
Q 3641 3956 3641 3272 
Q 3641 2581 3239 2228 
Q 2838 1875 2053 1875 
L 1259 1875 
L 1259 0 
L 628 0 
L 628 4666 
z
" id="DejaVuSans-50" transform="scale(0.015625)"/>
       <path d="M 1959 3097 
Q 1497 3097 1228 2736 
Q 959 2375 959 1747 
Q 959 1119 1226 758 
Q 1494 397 1959 397 
Q 2419 397 2687 759 
Q 2956 1122 2956 1747 
Q 2956 2369 2687 2733 
Q 2419 3097 1959 3097 
z
M 1959 3584 
Q 2709 3584 3137 3096 
Q 3566 2609 3566 1747 
Q 3566 888 3137 398 
Q 2709 -91 1959 -91 
Q 1206 -91 779 398 
Q 353 888 353 1747 
Q 353 2609 779 3096 
Q 1206 3584 1959 3584 
z
" id="DejaVuSans-6f" transform="scale(0.015625)"/>
       <path d="M 2631 2963 
Q 2534 3019 2420 3045 
Q 2306 3072 2169 3072 
Q 1681 3072 1420 2755 
Q 1159 2438 1159 1844 
L 1159 0 
L 581 0 
L 581 3500 
L 1159 3500 
L 1159 2956 
Q 1341 3275 1631 3429 
Q 1922 3584 2338 3584 
Q 2397 3584 2469 3576 
Q 2541 3569 2628 3553 
L 2631 2963 
z
" id="DejaVuSans-72" transform="scale(0.015625)"/>
       <path d="M 1172 4494 
L 1172 3500 
L 2356 3500 
L 2356 3053 
L 1172 3053 
L 1172 1153 
Q 1172 725 1289 603 
Q 1406 481 1766 481 
L 2356 481 
L 2356 0 
L 1766 0 
Q 1100 0 847 248 
Q 594 497 594 1153 
L 594 3053 
L 172 3053 
L 172 3500 
L 594 3500 
L 594 4494 
L 1172 4494 
z
" id="DejaVuSans-74" transform="scale(0.015625)"/>
       <path d="M 603 3500 
L 1178 3500 
L 1178 0 
L 603 0 
L 603 3500 
z
M 603 4863 
L 1178 4863 
L 1178 4134 
L 603 4134 
L 603 4863 
z
" id="DejaVuSans-69" transform="scale(0.015625)"/>
       <path d="M 3513 2113 
L 3513 0 
L 2938 0 
L 2938 2094 
Q 2938 2591 2744 2837 
Q 2550 3084 2163 3084 
Q 1697 3084 1428 2787 
Q 1159 2491 1159 1978 
L 1159 0 
L 581 0 
L 581 3500 
L 1159 3500 
L 1159 2956 
Q 1366 3272 1645 3428 
Q 1925 3584 2291 3584 
Q 2894 3584 3203 3211 
Q 3513 2838 3513 2113 
z
" id="DejaVuSans-6e" transform="scale(0.015625)"/>
       <path id="DejaVuSans-20" transform="scale(0.015625)"/>
       <path d="M 2375 4863 
L 2375 4384 
L 1825 4384 
Q 1516 4384 1395 4259 
Q 1275 4134 1275 3809 
L 1275 3500 
L 2222 3500 
L 2222 3053 
L 1275 3053 
L 1275 0 
L 697 0 
L 697 3053 
L 147 3053 
L 147 3500 
L 697 3500 
L 697 3744 
Q 697 4328 969 4595 
Q 1241 4863 1831 4863 
L 2375 4863 
z
" id="DejaVuSans-66" transform="scale(0.015625)"/>
       <path d="M 3116 1747 
Q 3116 2381 2855 2742 
Q 2594 3103 2138 3103 
Q 1681 3103 1420 2742 
Q 1159 2381 1159 1747 
Q 1159 1113 1420 752 
Q 1681 391 2138 391 
Q 2594 391 2855 752 
Q 3116 1113 3116 1747 
z
M 1159 2969 
Q 1341 3281 1617 3432 
Q 1894 3584 2278 3584 
Q 2916 3584 3314 3078 
Q 3713 2572 3713 1747 
Q 3713 922 3314 415 
Q 2916 -91 2278 -91 
Q 1894 -91 1617 61 
Q 1341 213 1159 525 
L 1159 0 
L 581 0 
L 581 4863 
L 1159 4863 
L 1159 2969 
z
" id="DejaVuSans-62" transform="scale(0.015625)"/>
       <path d="M 603 4863 
L 1178 4863 
L 1178 0 
L 603 0 
L 603 4863 
z
" id="DejaVuSans-6c" transform="scale(0.015625)"/>
       <path d="M 1159 525 
L 1159 -1331 
L 581 -1331 
L 581 3500 
L 1159 3500 
L 1159 2969 
Q 1341 3281 1617 3432 
Q 1894 3584 2278 3584 
Q 2916 3584 3314 3078 
Q 3713 2572 3713 1747 
Q 3713 922 3314 415 
Q 2916 -91 2278 -91 
Q 1894 -91 1617 61 
Q 1341 213 1159 525 
z
M 3116 1747 
Q 3116 2381 2855 2742 
Q 2594 3103 2138 3103 
Q 1681 3103 1420 2742 
Q 1159 2381 1159 1747 
Q 1159 1113 1420 752 
Q 1681 391 2138 391 
Q 2594 391 2855 752 
Q 3116 1113 3116 1747 
z
" id="DejaVuSans-70" transform="scale(0.015625)"/>
       <path d="M 2834 3397 
L 2834 2853 
Q 2591 2978 2328 3040 
Q 2066 3103 1784 3103 
Q 1356 3103 1142 2972 
Q 928 2841 928 2578 
Q 928 2378 1081 2264 
Q 1234 2150 1697 2047 
L 1894 2003 
Q 2506 1872 2764 1633 
Q 3022 1394 3022 966 
Q 3022 478 2636 193 
Q 2250 -91 1575 -91 
Q 1294 -91 989 -36 
Q 684 19 347 128 
L 347 722 
Q 666 556 975 473 
Q 1284 391 1588 391 
Q 1994 391 2212 530 
Q 2431 669 2431 922 
Q 2431 1156 2273 1281 
Q 2116 1406 1581 1522 
L 1381 1569 
Q 847 1681 609 1914 
Q 372 2147 372 2553 
Q 372 3047 722 3315 
Q 1072 3584 1716 3584 
Q 2034 3584 2315 3537 
Q 2597 3491 2834 3397 
z
" id="DejaVuSans-73" transform="scale(0.015625)"/>
       <path d="M 1984 4856 
Q 1566 4138 1362 3434 
Q 1159 2731 1159 2009 
Q 1159 1288 1364 580 
Q 1569 -128 1984 -844 
L 1484 -844 
Q 1016 -109 783 600 
Q 550 1309 550 2009 
Q 550 2706 781 3412 
Q 1013 4119 1484 4856 
L 1984 4856 
z
" id="DejaVuSans-28" transform="scale(0.015625)"/>
       <path d="M 4653 2053 
Q 4381 2053 4226 1822 
Q 4072 1591 4072 1178 
Q 4072 772 4226 539 
Q 4381 306 4653 306 
Q 4919 306 5073 539 
Q 5228 772 5228 1178 
Q 5228 1588 5073 1820 
Q 4919 2053 4653 2053 
z
M 4653 2450 
Q 5147 2450 5437 2106 
Q 5728 1763 5728 1178 
Q 5728 594 5436 251 
Q 5144 -91 4653 -91 
Q 4153 -91 3862 251 
Q 3572 594 3572 1178 
Q 3572 1766 3864 2108 
Q 4156 2450 4653 2450 
z
M 1428 4353 
Q 1159 4353 1004 4120 
Q 850 3888 850 3481 
Q 850 3069 1003 2837 
Q 1156 2606 1428 2606 
Q 1700 2606 1854 2837 
Q 2009 3069 2009 3481 
Q 2009 3884 1853 4118 
Q 1697 4353 1428 4353 
z
M 4250 4750 
L 4750 4750 
L 1831 -91 
L 1331 -91 
L 4250 4750 
z
M 1428 4750 
Q 1922 4750 2215 4408 
Q 2509 4066 2509 3481 
Q 2509 2891 2217 2550 
Q 1925 2209 1428 2209 
Q 931 2209 642 2551 
Q 353 2894 353 3481 
Q 353 4063 643 4406 
Q 934 4750 1428 4750 
z
" id="DejaVuSans-25" transform="scale(0.015625)"/>
       <path d="M 513 4856 
L 1013 4856 
Q 1481 4119 1714 3412 
Q 1947 2706 1947 2009 
Q 1947 1309 1714 600 
Q 1481 -109 1013 -844 
L 513 -844 
Q 928 -128 1133 580 
Q 1338 1288 1338 2009 
Q 1338 2731 1133 3434 
Q 928 4138 513 4856 
z
" id="DejaVuSans-29" transform="scale(0.015625)"/>
      </defs>
      <use xlink:href="#DejaVuSans-50"/>
      <use x="56.677734" xlink:href="#DejaVuSans-6f"/>
      <use x="117.859375" xlink:href="#DejaVuSans-72"/>
      <use x="158.972656" xlink:href="#DejaVuSans-74"/>
      <use x="198.181641" xlink:href="#DejaVuSans-69"/>
      <use x="225.964844" xlink:href="#DejaVuSans-6f"/>
      <use x="287.146484" xlink:href="#DejaVuSans-6e"/>
      <use x="350.525391" xlink:href="#DejaVuSans-20"/>
      <use x="382.3125" xlink:href="#DejaVuSans-6f"/>
      <use x="443.494141" xlink:href="#DejaVuSans-66"/>
      <use x="478.699219" xlink:href="#DejaVuSans-20"/>
      <use x="510.486328" xlink:href="#DejaVuSans-62"/>
      <use x="573.962891" xlink:href="#DejaVuSans-69"/>
      <use x="601.746094" xlink:href="#DejaVuSans-74"/>
      <use x="640.955078" xlink:href="#DejaVuSans-20"/>
      <use x="672.742188" xlink:href="#DejaVuSans-66"/>
      <use x="707.947266" xlink:href="#DejaVuSans-6c"/>
      <use x="735.730469" xlink:href="#DejaVuSans-69"/>
      <use x="763.513672" xlink:href="#DejaVuSans-70"/>
      <use x="826.990234" xlink:href="#DejaVuSans-73"/>
      <use x="879.089844" xlink:href="#DejaVuSans-20"/>
      <use x="910.876953" xlink:href="#DejaVuSans-28"/>
      <use x="949.890625" xlink:href="#DejaVuSans-25"/>
      <use x="1044.910156" xlink:href="#DejaVuSans-29"/>
     </g>
    </g>
   </g>
   <g id="matplotlib.axis_2">
    <g id="ytick_1">
     <g id="line2d_7">
      <defs>
       <path d="M 0 0 
L -3.5 0 
" id="m7bb05d2057" style="stroke:#000000;stroke-width:0.8;"/>
      </defs>
      <g>
       <use style="stroke:#000000;stroke-width:0.8;" x="46.965625" xlink:href="#m7bb05d2057" y="233.998125"/>
      </g>
     </g>
     <g id="text_8">
      <!-- 0 -->
      <g transform="translate(33.603125 237.797344)scale(0.1 -0.1)">
       <use xlink:href="#DejaVuSans-30"/>
      </g>
     </g>
    </g>
    <g id="ytick_2">
     <g id="line2d_8">
      <g>
       <use style="stroke:#000000;stroke-width:0.8;" x="46.965625" xlink:href="#m7bb05d2057" y="193.678125"/>
      </g>
     </g>
     <g id="text_9">
      <!-- 20 -->
      <g transform="translate(27.240625 197.477344)scale(0.1 -0.1)">
       <use xlink:href="#DejaVuSans-32"/>
       <use x="63.623047" xlink:href="#DejaVuSans-30"/>
      </g>
     </g>
    </g>
    <g id="ytick_3">
     <g id="line2d_9">
      <g>
       <use style="stroke:#000000;stroke-width:0.8;" x="46.965625" xlink:href="#m7bb05d2057" y="153.358125"/>
      </g>
     </g>
     <g id="text_10">
      <!-- 40 -->
      <g transform="translate(27.240625 157.157344)scale(0.1 -0.1)">
       <use xlink:href="#DejaVuSans-34"/>
       <use x="63.623047" xlink:href="#DejaVuSans-30"/>
      </g>
     </g>
    </g>
    <g id="ytick_4">
     <g id="line2d_10">
      <g>
       <use style="stroke:#000000;stroke-width:0.8;" x="46.965625" xlink:href="#m7bb05d2057" y="113.038125"/>
      </g>
     </g>
     <g id="text_11">
      <!-- 60 -->
      <g transform="translate(27.240625 116.837344)scale(0.1 -0.1)">
       <use xlink:href="#DejaVuSans-36"/>
       <use x="63.623047" xlink:href="#DejaVuSans-30"/>
      </g>
     </g>
    </g>
    <g id="ytick_5">
     <g id="line2d_11">
      <g>
       <use style="stroke:#000000;stroke-width:0.8;" x="46.965625" xlink:href="#m7bb05d2057" y="72.718125"/>
      </g>
     </g>
     <g id="text_12">
      <!-- 80 -->
      <g transform="translate(27.240625 76.517344)scale(0.1 -0.1)">
       <use xlink:href="#DejaVuSans-38"/>
       <use x="63.623047" xlink:href="#DejaVuSans-30"/>
      </g>
     </g>
    </g>
    <g id="ytick_6">
     <g id="line2d_12">
      <g>
       <use style="stroke:#000000;stroke-width:0.8;" x="46.965625" xlink:href="#m7bb05d2057" y="32.398125"/>
      </g>
     </g>
     <g id="text_13">
      <!-- 100 -->
      <g transform="translate(20.878125 36.197344)scale(0.1 -0.1)">
       <use xlink:href="#DejaVuSans-31"/>
       <use x="63.623047" xlink:href="#DejaVuSans-30"/>
       <use x="127.246094" xlink:href="#DejaVuSans-30"/>
      </g>
     </g>
    </g>
    <g id="text_14">
     <!-- accuracy (%) -->
     <g transform="translate(14.798438 165.998906)rotate(-90)scale(0.1 -0.1)">
      <defs>
       <path d="M 2194 1759 
Q 1497 1759 1228 1600 
Q 959 1441 959 1056 
Q 959 750 1161 570 
Q 1363 391 1709 391 
Q 2188 391 2477 730 
Q 2766 1069 2766 1631 
L 2766 1759 
L 2194 1759 
z
M 3341 1997 
L 3341 0 
L 2766 0 
L 2766 531 
Q 2569 213 2275 61 
Q 1981 -91 1556 -91 
Q 1019 -91 701 211 
Q 384 513 384 1019 
Q 384 1609 779 1909 
Q 1175 2209 1959 2209 
L 2766 2209 
L 2766 2266 
Q 2766 2663 2505 2880 
Q 2244 3097 1772 3097 
Q 1472 3097 1187 3025 
Q 903 2953 641 2809 
L 641 3341 
Q 956 3463 1253 3523 
Q 1550 3584 1831 3584 
Q 2591 3584 2966 3190 
Q 3341 2797 3341 1997 
z
" id="DejaVuSans-61" transform="scale(0.015625)"/>
       <path d="M 3122 3366 
L 3122 2828 
Q 2878 2963 2633 3030 
Q 2388 3097 2138 3097 
Q 1578 3097 1268 2742 
Q 959 2388 959 1747 
Q 959 1106 1268 751 
Q 1578 397 2138 397 
Q 2388 397 2633 464 
Q 2878 531 3122 666 
L 3122 134 
Q 2881 22 2623 -34 
Q 2366 -91 2075 -91 
Q 1284 -91 818 406 
Q 353 903 353 1747 
Q 353 2603 823 3093 
Q 1294 3584 2113 3584 
Q 2378 3584 2631 3529 
Q 2884 3475 3122 3366 
z
" id="DejaVuSans-63" transform="scale(0.015625)"/>
       <path d="M 544 1381 
L 544 3500 
L 1119 3500 
L 1119 1403 
Q 1119 906 1312 657 
Q 1506 409 1894 409 
Q 2359 409 2629 706 
Q 2900 1003 2900 1516 
L 2900 3500 
L 3475 3500 
L 3475 0 
L 2900 0 
L 2900 538 
Q 2691 219 2414 64 
Q 2138 -91 1772 -91 
Q 1169 -91 856 284 
Q 544 659 544 1381 
z
M 1991 3584 
L 1991 3584 
z
" id="DejaVuSans-75" transform="scale(0.015625)"/>
       <path d="M 2059 -325 
Q 1816 -950 1584 -1140 
Q 1353 -1331 966 -1331 
L 506 -1331 
L 506 -850 
L 844 -850 
Q 1081 -850 1212 -737 
Q 1344 -625 1503 -206 
L 1606 56 
L 191 3500 
L 800 3500 
L 1894 763 
L 2988 3500 
L 3597 3500 
L 2059 -325 
z
" id="DejaVuSans-79" transform="scale(0.015625)"/>
      </defs>
      <use xlink:href="#DejaVuSans-61"/>
      <use x="61.279297" xlink:href="#DejaVuSans-63"/>
      <use x="116.259766" xlink:href="#DejaVuSans-63"/>
      <use x="171.240234" xlink:href="#DejaVuSans-75"/>
      <use x="234.619141" xlink:href="#DejaVuSans-72"/>
      <use x="275.732422" xlink:href="#DejaVuSans-61"/>
      <use x="337.011719" xlink:href="#DejaVuSans-63"/>
      <use x="391.992188" xlink:href="#DejaVuSans-79"/>
      <use x="451.171875" xlink:href="#DejaVuSans-20"/>
      <use x="482.958984" xlink:href="#DejaVuSans-28"/>
      <use x="521.972656" xlink:href="#DejaVuSans-25"/>
      <use x="616.992188" xlink:href="#DejaVuSans-29"/>
     </g>
    </g>
   </g>
   <g id="LineCollection_1">
    <path clip-path="url(#pa71e3747c8)" d="M 85.019352 233.998125 
L 85.019352 32.398125 
" style="fill:none;stroke:#d3d3d3;stroke-dasharray:5.55,2.4;stroke-dashoffset:0;stroke-width:1.5;"/>
   </g>
   <g id="LineCollection_2">
    <path clip-path="url(#pa71e3747c8)" d="M 152.914981 233.998125 
L 152.914981 32.398125 
" style="fill:none;stroke:#000000;stroke-dasharray:5.55,2.4;stroke-dashoffset:0;stroke-width:1.5;"/>
   </g>
   <g id="LineCollection_3">
    <path clip-path="url(#pa71e3747c8)" d="M 230.717063 233.998125 
L 230.717063 32.398125 
" style="fill:none;stroke:#008080;stroke-dasharray:5.55,2.4;stroke-dashoffset:0;stroke-width:1.5;"/>
   </g>
   <g id="LineCollection_4">
    <path clip-path="url(#pa71e3747c8)" d="M 344.043951 233.998125 
L 344.043951 32.398125 
" style="fill:none;stroke:#ffa500;stroke-dasharray:5.55,2.4;stroke-dashoffset:0;stroke-width:1.5;"/>
   </g>
   <g id="line2d_13">
    <path clip-path="url(#pa71e3747c8)" d="M 85.01108 51.892845 
L 85.011096 51.892845 
L 85.011128 51.892845 
L 85.011193 51.913005 
L 85.011322 51.892845 
L 85.011581 51.892845 
L 85.012099 51.892845 
L 85.013136 51.892845 
L 85.015208 51.892845 
L 85.019352 51.953325 
L 85.027641 51.892845 
L 85.04422 51.852525 
L 85.077376 51.953325 
L 85.143688 51.933165 
L 85.276313 51.973485 
L 85.541563 51.933165 
L 86.072062 52.054125 
L 87.133061 51.691245 
L 89.255058 51.872685 
L 93.499053 52.296045 
L 101.987043 52.094445 
L 118.963022 52.175085 
L 152.914981 52.537965 
L 220.818898 56.751405 
L 344.043951 72.859245 
L 360.233506 74.109165 
L 376.423062 84.955245 
L 392.612617 87.172845 
L 408.802173 106.969965 
L 424.991728 104.087085 
L 441.181284 102.111405 
L 457.370839 122.593965 
L 473.560395 116.485485 
L 489.74995 121.807725 
L 505.939506 121.404525 
L 522.129061 131.262765 
L 538.318617 146.402925 
L 554.508172 132.089325 
L 570.697727 132.028845 
L 586.887283 150.374445 
L 603.076838 174.304365 
L 619.266394 170.494125 
L 635.455949 183.215085 
L 651.645505 190.452525 
L 667.83506 172.893165 
L 684.024616 173.699565 
L 700.214171 187.368045 
L 716.403727 180.574125 
L 732.593282 175.312365 
L 748.782838 187.751085 
L 764.972393 186.481005 
L 781.161949 189.001005 
L 797.351504 193.617645 
L 813.54106 195.553005 
L 829.730615 198.193965 
L 845.92017 199.806765 
" style="fill:none;stroke:#008000;stroke-linecap:square;"/>
    <defs>
     <path d="M 0 3 
C 0.795609 3 1.55874 2.683901 2.12132 2.12132 
C 2.683901 1.55874 3 0.795609 3 0 
C 3 -0.795609 2.683901 -1.55874 2.12132 -2.12132 
C 1.55874 -2.683901 0.795609 -3 0 -3 
C -0.795609 -3 -1.55874 -2.683901 -2.12132 -2.12132 
C -2.683901 -1.55874 -3 -0.795609 -3 0 
C -3 0.795609 -2.683901 1.55874 -2.12132 2.12132 
C -1.55874 2.683901 -0.795609 3 0 3 
z
" id="m299b12e9c8" style="stroke:#008000;"/>
    </defs>
    <g clip-path="url(#pa71e3747c8)">
     <use style="fill:#008000;stroke:#008000;" x="85.01108" xlink:href="#m299b12e9c8" y="51.892845"/>
     <use style="fill:#008000;stroke:#008000;" x="85.011096" xlink:href="#m299b12e9c8" y="51.892845"/>
     <use style="fill:#008000;stroke:#008000;" x="85.011128" xlink:href="#m299b12e9c8" y="51.892845"/>
     <use style="fill:#008000;stroke:#008000;" x="85.011193" xlink:href="#m299b12e9c8" y="51.913005"/>
     <use style="fill:#008000;stroke:#008000;" x="85.011322" xlink:href="#m299b12e9c8" y="51.892845"/>
     <use style="fill:#008000;stroke:#008000;" x="85.011581" xlink:href="#m299b12e9c8" y="51.892845"/>
     <use style="fill:#008000;stroke:#008000;" x="85.012099" xlink:href="#m299b12e9c8" y="51.892845"/>
     <use style="fill:#008000;stroke:#008000;" x="85.013136" xlink:href="#m299b12e9c8" y="51.892845"/>
     <use style="fill:#008000;stroke:#008000;" x="85.015208" xlink:href="#m299b12e9c8" y="51.892845"/>
     <use style="fill:#008000;stroke:#008000;" x="85.019352" xlink:href="#m299b12e9c8" y="51.953325"/>
     <use style="fill:#008000;stroke:#008000;" x="85.027641" xlink:href="#m299b12e9c8" y="51.892845"/>
     <use style="fill:#008000;stroke:#008000;" x="85.04422" xlink:href="#m299b12e9c8" y="51.852525"/>
     <use style="fill:#008000;stroke:#008000;" x="85.077376" xlink:href="#m299b12e9c8" y="51.953325"/>
     <use style="fill:#008000;stroke:#008000;" x="85.143688" xlink:href="#m299b12e9c8" y="51.933165"/>
     <use style="fill:#008000;stroke:#008000;" x="85.276313" xlink:href="#m299b12e9c8" y="51.973485"/>
     <use style="fill:#008000;stroke:#008000;" x="85.541563" xlink:href="#m299b12e9c8" y="51.933165"/>
     <use style="fill:#008000;stroke:#008000;" x="86.072062" xlink:href="#m299b12e9c8" y="52.054125"/>
     <use style="fill:#008000;stroke:#008000;" x="87.133061" xlink:href="#m299b12e9c8" y="51.691245"/>
     <use style="fill:#008000;stroke:#008000;" x="89.255058" xlink:href="#m299b12e9c8" y="51.872685"/>
     <use style="fill:#008000;stroke:#008000;" x="93.499053" xlink:href="#m299b12e9c8" y="52.296045"/>
     <use style="fill:#008000;stroke:#008000;" x="101.987043" xlink:href="#m299b12e9c8" y="52.094445"/>
     <use style="fill:#008000;stroke:#008000;" x="118.963022" xlink:href="#m299b12e9c8" y="52.175085"/>
     <use style="fill:#008000;stroke:#008000;" x="152.914981" xlink:href="#m299b12e9c8" y="52.537965"/>
     <use style="fill:#008000;stroke:#008000;" x="220.818898" xlink:href="#m299b12e9c8" y="56.751405"/>
     <use style="fill:#008000;stroke:#008000;" x="344.043951" xlink:href="#m299b12e9c8" y="72.859245"/>
     <use style="fill:#008000;stroke:#008000;" x="360.233506" xlink:href="#m299b12e9c8" y="74.109165"/>
     <use style="fill:#008000;stroke:#008000;" x="376.423062" xlink:href="#m299b12e9c8" y="84.955245"/>
     <use style="fill:#008000;stroke:#008000;" x="392.612617" xlink:href="#m299b12e9c8" y="87.172845"/>
     <use style="fill:#008000;stroke:#008000;" x="408.802173" xlink:href="#m299b12e9c8" y="106.969965"/>
     <use style="fill:#008000;stroke:#008000;" x="424.991728" xlink:href="#m299b12e9c8" y="104.087085"/>
     <use style="fill:#008000;stroke:#008000;" x="441.181284" xlink:href="#m299b12e9c8" y="102.111405"/>
     <use style="fill:#008000;stroke:#008000;" x="457.370839" xlink:href="#m299b12e9c8" y="122.593965"/>
     <use style="fill:#008000;stroke:#008000;" x="473.560395" xlink:href="#m299b12e9c8" y="116.485485"/>
     <use style="fill:#008000;stroke:#008000;" x="489.74995" xlink:href="#m299b12e9c8" y="121.807725"/>
     <use style="fill:#008000;stroke:#008000;" x="505.939506" xlink:href="#m299b12e9c8" y="121.404525"/>
     <use style="fill:#008000;stroke:#008000;" x="522.129061" xlink:href="#m299b12e9c8" y="131.262765"/>
     <use style="fill:#008000;stroke:#008000;" x="538.318617" xlink:href="#m299b12e9c8" y="146.402925"/>
     <use style="fill:#008000;stroke:#008000;" x="554.508172" xlink:href="#m299b12e9c8" y="132.089325"/>
     <use style="fill:#008000;stroke:#008000;" x="570.697727" xlink:href="#m299b12e9c8" y="132.028845"/>
     <use style="fill:#008000;stroke:#008000;" x="586.887283" xlink:href="#m299b12e9c8" y="150.374445"/>
     <use style="fill:#008000;stroke:#008000;" x="603.076838" xlink:href="#m299b12e9c8" y="174.304365"/>
     <use style="fill:#008000;stroke:#008000;" x="619.266394" xlink:href="#m299b12e9c8" y="170.494125"/>
     <use style="fill:#008000;stroke:#008000;" x="635.455949" xlink:href="#m299b12e9c8" y="183.215085"/>
     <use style="fill:#008000;stroke:#008000;" x="651.645505" xlink:href="#m299b12e9c8" y="190.452525"/>
     <use style="fill:#008000;stroke:#008000;" x="667.83506" xlink:href="#m299b12e9c8" y="172.893165"/>
     <use style="fill:#008000;stroke:#008000;" x="684.024616" xlink:href="#m299b12e9c8" y="173.699565"/>
     <use style="fill:#008000;stroke:#008000;" x="700.214171" xlink:href="#m299b12e9c8" y="187.368045"/>
     <use style="fill:#008000;stroke:#008000;" x="716.403727" xlink:href="#m299b12e9c8" y="180.574125"/>
     <use style="fill:#008000;stroke:#008000;" x="732.593282" xlink:href="#m299b12e9c8" y="175.312365"/>
     <use style="fill:#008000;stroke:#008000;" x="748.782838" xlink:href="#m299b12e9c8" y="187.751085"/>
     <use style="fill:#008000;stroke:#008000;" x="764.972393" xlink:href="#m299b12e9c8" y="186.481005"/>
     <use style="fill:#008000;stroke:#008000;" x="781.161949" xlink:href="#m299b12e9c8" y="189.001005"/>
     <use style="fill:#008000;stroke:#008000;" x="797.351504" xlink:href="#m299b12e9c8" y="193.617645"/>
     <use style="fill:#008000;stroke:#008000;" x="813.54106" xlink:href="#m299b12e9c8" y="195.553005"/>
     <use style="fill:#008000;stroke:#008000;" x="829.730615" xlink:href="#m299b12e9c8" y="198.193965"/>
     <use style="fill:#008000;stroke:#008000;" x="845.92017" xlink:href="#m299b12e9c8" y="199.806765"/>
    </g>
   </g>
   <g id="patch_3">
    <path d="M 46.965625 244.078125 
L 46.965625 22.318125 
" style="fill:none;stroke:#000000;stroke-linecap:square;stroke-linejoin:miter;stroke-width:0.8;"/>
   </g>
   <g id="patch_4">
    <path d="M 883.965625 244.078125 
L 883.965625 22.318125 
" style="fill:none;stroke:#000000;stroke-linecap:square;stroke-linejoin:miter;stroke-width:0.8;"/>
   </g>
   <g id="patch_5">
    <path d="M 46.965625 244.078125 
L 883.965625 244.078125 
" style="fill:none;stroke:#000000;stroke-linecap:square;stroke-linejoin:miter;stroke-width:0.8;"/>
   </g>
   <g id="patch_6">
    <path d="M 46.965625 22.318125 
L 883.965625 22.318125 
" style="fill:none;stroke:#000000;stroke-linecap:square;stroke-linejoin:miter;stroke-width:0.8;"/>
   </g>
   <g id="text_15">
    <!-- BER sensitivity -->
    <g transform="translate(420.92875 16.318125)scale(0.12 -0.12)">
     <defs>
      <path d="M 1259 2228 
L 1259 519 
L 2272 519 
Q 2781 519 3026 730 
Q 3272 941 3272 1375 
Q 3272 1813 3026 2020 
Q 2781 2228 2272 2228 
L 1259 2228 
z
M 1259 4147 
L 1259 2741 
L 2194 2741 
Q 2656 2741 2882 2914 
Q 3109 3088 3109 3444 
Q 3109 3797 2882 3972 
Q 2656 4147 2194 4147 
L 1259 4147 
z
M 628 4666 
L 2241 4666 
Q 2963 4666 3353 4366 
Q 3744 4066 3744 3513 
Q 3744 3084 3544 2831 
Q 3344 2578 2956 2516 
Q 3422 2416 3680 2098 
Q 3938 1781 3938 1306 
Q 3938 681 3513 340 
Q 3088 0 2303 0 
L 628 0 
L 628 4666 
z
" id="DejaVuSans-42" transform="scale(0.015625)"/>
      <path d="M 628 4666 
L 3578 4666 
L 3578 4134 
L 1259 4134 
L 1259 2753 
L 3481 2753 
L 3481 2222 
L 1259 2222 
L 1259 531 
L 3634 531 
L 3634 0 
L 628 0 
L 628 4666 
z
" id="DejaVuSans-45" transform="scale(0.015625)"/>
      <path d="M 2841 2188 
Q 3044 2119 3236 1894 
Q 3428 1669 3622 1275 
L 4263 0 
L 3584 0 
L 2988 1197 
Q 2756 1666 2539 1819 
Q 2322 1972 1947 1972 
L 1259 1972 
L 1259 0 
L 628 0 
L 628 4666 
L 2053 4666 
Q 2853 4666 3247 4331 
Q 3641 3997 3641 3322 
Q 3641 2881 3436 2590 
Q 3231 2300 2841 2188 
z
M 1259 4147 
L 1259 2491 
L 2053 2491 
Q 2509 2491 2742 2702 
Q 2975 2913 2975 3322 
Q 2975 3731 2742 3939 
Q 2509 4147 2053 4147 
L 1259 4147 
z
" id="DejaVuSans-52" transform="scale(0.015625)"/>
      <path d="M 3597 1894 
L 3597 1613 
L 953 1613 
Q 991 1019 1311 708 
Q 1631 397 2203 397 
Q 2534 397 2845 478 
Q 3156 559 3463 722 
L 3463 178 
Q 3153 47 2828 -22 
Q 2503 -91 2169 -91 
Q 1331 -91 842 396 
Q 353 884 353 1716 
Q 353 2575 817 3079 
Q 1281 3584 2069 3584 
Q 2775 3584 3186 3129 
Q 3597 2675 3597 1894 
z
M 3022 2063 
Q 3016 2534 2758 2815 
Q 2500 3097 2075 3097 
Q 1594 3097 1305 2825 
Q 1016 2553 972 2059 
L 3022 2063 
z
" id="DejaVuSans-65" transform="scale(0.015625)"/>
      <path d="M 191 3500 
L 800 3500 
L 1894 563 
L 2988 3500 
L 3597 3500 
L 2284 0 
L 1503 0 
L 191 3500 
z
" id="DejaVuSans-76" transform="scale(0.015625)"/>
     </defs>
     <use xlink:href="#DejaVuSans-42"/>
     <use x="68.603516" xlink:href="#DejaVuSans-45"/>
     <use x="131.787109" xlink:href="#DejaVuSans-52"/>
     <use x="201.269531" xlink:href="#DejaVuSans-20"/>
     <use x="233.056641" xlink:href="#DejaVuSans-73"/>
     <use x="285.15625" xlink:href="#DejaVuSans-65"/>
     <use x="346.679688" xlink:href="#DejaVuSans-6e"/>
     <use x="410.058594" xlink:href="#DejaVuSans-73"/>
     <use x="462.158203" xlink:href="#DejaVuSans-69"/>
     <use x="489.941406" xlink:href="#DejaVuSans-74"/>
     <use x="529.150391" xlink:href="#DejaVuSans-69"/>
     <use x="556.933594" xlink:href="#DejaVuSans-76"/>
     <use x="616.113281" xlink:href="#DejaVuSans-69"/>
     <use x="643.896484" xlink:href="#DejaVuSans-74"/>
     <use x="683.105469" xlink:href="#DejaVuSans-79"/>
    </g>
   </g>
   <g id="legend_1">
    <g id="patch_7">
     <path d="M 571.73125 103.70875 
L 876.965625 103.70875 
Q 878.965625 103.70875 878.965625 101.70875 
L 878.965625 29.318125 
Q 878.965625 27.318125 876.965625 27.318125 
L 571.73125 27.318125 
Q 569.73125 27.318125 569.73125 29.318125 
L 569.73125 101.70875 
Q 569.73125 103.70875 571.73125 103.70875 
z
" style="fill:#ffffff;opacity:0.8;stroke:#cccccc;stroke-linejoin:miter;"/>
    </g>
    <g id="line2d_14">
     <path d="M 573.73125 35.416562 
L 593.73125 35.416562 
" style="fill:none;stroke:#008000;stroke-linecap:square;"/>
    </g>
    <g id="line2d_15">
     <g>
      <use style="fill:#008000;stroke:#008000;" x="583.73125" xlink:href="#m299b12e9c8" y="35.416562"/>
     </g>
    </g>
    <g id="text_16">
     <!-- Accuracy -->
     <g transform="translate(601.73125 38.916562)scale(0.1 -0.1)">
      <defs>
       <path d="M 2188 4044 
L 1331 1722 
L 3047 1722 
L 2188 4044 
z
M 1831 4666 
L 2547 4666 
L 4325 0 
L 3669 0 
L 3244 1197 
L 1141 1197 
L 716 0 
L 50 0 
L 1831 4666 
z
" id="DejaVuSans-41" transform="scale(0.015625)"/>
      </defs>
      <use xlink:href="#DejaVuSans-41"/>
      <use x="66.658203" xlink:href="#DejaVuSans-63"/>
      <use x="121.638672" xlink:href="#DejaVuSans-63"/>
      <use x="176.619141" xlink:href="#DejaVuSans-75"/>
      <use x="239.998047" xlink:href="#DejaVuSans-72"/>
      <use x="281.111328" xlink:href="#DejaVuSans-61"/>
      <use x="342.390625" xlink:href="#DejaVuSans-63"/>
      <use x="397.371094" xlink:href="#DejaVuSans-79"/>
     </g>
    </g>
    <g id="line2d_16">
     <path d="M 573.73125 50.094687 
L 593.73125 50.094687 
" style="fill:none;stroke:#d3d3d3;stroke-dasharray:5.55,2.4;stroke-dashoffset:0;stroke-width:1.5;"/>
    </g>
    <g id="text_17">
     <!-- 0'%' acc loss at 0.001'%' of bits -->
     <g transform="translate(601.73125 53.594687)scale(0.1 -0.1)">
      <defs>
       <path d="M 1147 4666 
L 1147 2931 
L 616 2931 
L 616 4666 
L 1147 4666 
z
" id="DejaVuSans-27" transform="scale(0.015625)"/>
       <path d="M 684 794 
L 1344 794 
L 1344 0 
L 684 0 
L 684 794 
z
" id="DejaVuSans-2e" transform="scale(0.015625)"/>
      </defs>
      <use xlink:href="#DejaVuSans-30"/>
      <use x="63.623047" xlink:href="#DejaVuSans-27"/>
      <use x="91.113281" xlink:href="#DejaVuSans-25"/>
      <use x="186.132812" xlink:href="#DejaVuSans-27"/>
      <use x="213.623047" xlink:href="#DejaVuSans-20"/>
      <use x="245.410156" xlink:href="#DejaVuSans-61"/>
      <use x="306.689453" xlink:href="#DejaVuSans-63"/>
      <use x="361.669922" xlink:href="#DejaVuSans-63"/>
      <use x="416.650391" xlink:href="#DejaVuSans-20"/>
      <use x="448.4375" xlink:href="#DejaVuSans-6c"/>
      <use x="476.220703" xlink:href="#DejaVuSans-6f"/>
      <use x="537.402344" xlink:href="#DejaVuSans-73"/>
      <use x="589.501953" xlink:href="#DejaVuSans-73"/>
      <use x="641.601562" xlink:href="#DejaVuSans-20"/>
      <use x="673.388672" xlink:href="#DejaVuSans-61"/>
      <use x="734.667969" xlink:href="#DejaVuSans-74"/>
      <use x="773.876953" xlink:href="#DejaVuSans-20"/>
      <use x="805.664062" xlink:href="#DejaVuSans-30"/>
      <use x="869.287109" xlink:href="#DejaVuSans-2e"/>
      <use x="901.074219" xlink:href="#DejaVuSans-30"/>
      <use x="964.697266" xlink:href="#DejaVuSans-30"/>
      <use x="1028.320312" xlink:href="#DejaVuSans-31"/>
      <use x="1091.943359" xlink:href="#DejaVuSans-27"/>
      <use x="1119.433594" xlink:href="#DejaVuSans-25"/>
      <use x="1214.453125" xlink:href="#DejaVuSans-27"/>
      <use x="1241.943359" xlink:href="#DejaVuSans-20"/>
      <use x="1273.730469" xlink:href="#DejaVuSans-6f"/>
      <use x="1334.912109" xlink:href="#DejaVuSans-66"/>
      <use x="1370.117188" xlink:href="#DejaVuSans-20"/>
      <use x="1401.904297" xlink:href="#DejaVuSans-62"/>
      <use x="1465.380859" xlink:href="#DejaVuSans-69"/>
      <use x="1493.164062" xlink:href="#DejaVuSans-74"/>
      <use x="1532.373047" xlink:href="#DejaVuSans-73"/>
     </g>
    </g>
    <g id="line2d_17">
     <path d="M 573.73125 64.772812 
L 593.73125 64.772812 
" style="fill:none;stroke:#000000;stroke-dasharray:5.55,2.4;stroke-dashoffset:0;stroke-width:1.5;"/>
    </g>
    <g id="text_18">
     <!-- 1'%' acc loss at 8.88'%' of bits -->
     <g transform="translate(601.73125 68.272812)scale(0.1 -0.1)">
      <use xlink:href="#DejaVuSans-31"/>
      <use x="63.623047" xlink:href="#DejaVuSans-27"/>
      <use x="91.113281" xlink:href="#DejaVuSans-25"/>
      <use x="186.132812" xlink:href="#DejaVuSans-27"/>
      <use x="213.623047" xlink:href="#DejaVuSans-20"/>
      <use x="245.410156" xlink:href="#DejaVuSans-61"/>
      <use x="306.689453" xlink:href="#DejaVuSans-63"/>
      <use x="361.669922" xlink:href="#DejaVuSans-63"/>
      <use x="416.650391" xlink:href="#DejaVuSans-20"/>
      <use x="448.4375" xlink:href="#DejaVuSans-6c"/>
      <use x="476.220703" xlink:href="#DejaVuSans-6f"/>
      <use x="537.402344" xlink:href="#DejaVuSans-73"/>
      <use x="589.501953" xlink:href="#DejaVuSans-73"/>
      <use x="641.601562" xlink:href="#DejaVuSans-20"/>
      <use x="673.388672" xlink:href="#DejaVuSans-61"/>
      <use x="734.667969" xlink:href="#DejaVuSans-74"/>
      <use x="773.876953" xlink:href="#DejaVuSans-20"/>
      <use x="805.664062" xlink:href="#DejaVuSans-38"/>
      <use x="869.287109" xlink:href="#DejaVuSans-2e"/>
      <use x="901.074219" xlink:href="#DejaVuSans-38"/>
      <use x="964.697266" xlink:href="#DejaVuSans-38"/>
      <use x="1028.320312" xlink:href="#DejaVuSans-27"/>
      <use x="1055.810547" xlink:href="#DejaVuSans-25"/>
      <use x="1150.830078" xlink:href="#DejaVuSans-27"/>
      <use x="1178.320312" xlink:href="#DejaVuSans-20"/>
      <use x="1210.107422" xlink:href="#DejaVuSans-6f"/>
      <use x="1271.289062" xlink:href="#DejaVuSans-66"/>
      <use x="1306.494141" xlink:href="#DejaVuSans-20"/>
      <use x="1338.28125" xlink:href="#DejaVuSans-62"/>
      <use x="1401.757812" xlink:href="#DejaVuSans-69"/>
      <use x="1429.541016" xlink:href="#DejaVuSans-74"/>
      <use x="1468.75" xlink:href="#DejaVuSans-73"/>
     </g>
    </g>
    <g id="line2d_18">
     <path d="M 573.73125 79.450937 
L 593.73125 79.450937 
" style="fill:none;stroke:#008080;stroke-dasharray:5.55,2.4;stroke-dashoffset:0;stroke-width:1.5;"/>
    </g>
    <g id="text_19">
     <!-- 5'%' acc loss at 19.07'%' of bits -->
     <g transform="translate(601.73125 82.950937)scale(0.1 -0.1)">
      <defs>
       <path d="M 691 4666 
L 3169 4666 
L 3169 4134 
L 1269 4134 
L 1269 2991 
Q 1406 3038 1543 3061 
Q 1681 3084 1819 3084 
Q 2600 3084 3056 2656 
Q 3513 2228 3513 1497 
Q 3513 744 3044 326 
Q 2575 -91 1722 -91 
Q 1428 -91 1123 -41 
Q 819 9 494 109 
L 494 744 
Q 775 591 1075 516 
Q 1375 441 1709 441 
Q 2250 441 2565 725 
Q 2881 1009 2881 1497 
Q 2881 1984 2565 2268 
Q 2250 2553 1709 2553 
Q 1456 2553 1204 2497 
Q 953 2441 691 2322 
L 691 4666 
z
" id="DejaVuSans-35" transform="scale(0.015625)"/>
       <path d="M 703 97 
L 703 672 
Q 941 559 1184 500 
Q 1428 441 1663 441 
Q 2288 441 2617 861 
Q 2947 1281 2994 2138 
Q 2813 1869 2534 1725 
Q 2256 1581 1919 1581 
Q 1219 1581 811 2004 
Q 403 2428 403 3163 
Q 403 3881 828 4315 
Q 1253 4750 1959 4750 
Q 2769 4750 3195 4129 
Q 3622 3509 3622 2328 
Q 3622 1225 3098 567 
Q 2575 -91 1691 -91 
Q 1453 -91 1209 -44 
Q 966 3 703 97 
z
M 1959 2075 
Q 2384 2075 2632 2365 
Q 2881 2656 2881 3163 
Q 2881 3666 2632 3958 
Q 2384 4250 1959 4250 
Q 1534 4250 1286 3958 
Q 1038 3666 1038 3163 
Q 1038 2656 1286 2365 
Q 1534 2075 1959 2075 
z
" id="DejaVuSans-39" transform="scale(0.015625)"/>
       <path d="M 525 4666 
L 3525 4666 
L 3525 4397 
L 1831 0 
L 1172 0 
L 2766 4134 
L 525 4134 
L 525 4666 
z
" id="DejaVuSans-37" transform="scale(0.015625)"/>
      </defs>
      <use xlink:href="#DejaVuSans-35"/>
      <use x="63.623047" xlink:href="#DejaVuSans-27"/>
      <use x="91.113281" xlink:href="#DejaVuSans-25"/>
      <use x="186.132812" xlink:href="#DejaVuSans-27"/>
      <use x="213.623047" xlink:href="#DejaVuSans-20"/>
      <use x="245.410156" xlink:href="#DejaVuSans-61"/>
      <use x="306.689453" xlink:href="#DejaVuSans-63"/>
      <use x="361.669922" xlink:href="#DejaVuSans-63"/>
      <use x="416.650391" xlink:href="#DejaVuSans-20"/>
      <use x="448.4375" xlink:href="#DejaVuSans-6c"/>
      <use x="476.220703" xlink:href="#DejaVuSans-6f"/>
      <use x="537.402344" xlink:href="#DejaVuSans-73"/>
      <use x="589.501953" xlink:href="#DejaVuSans-73"/>
      <use x="641.601562" xlink:href="#DejaVuSans-20"/>
      <use x="673.388672" xlink:href="#DejaVuSans-61"/>
      <use x="734.667969" xlink:href="#DejaVuSans-74"/>
      <use x="773.876953" xlink:href="#DejaVuSans-20"/>
      <use x="805.664062" xlink:href="#DejaVuSans-31"/>
      <use x="869.287109" xlink:href="#DejaVuSans-39"/>
      <use x="932.910156" xlink:href="#DejaVuSans-2e"/>
      <use x="964.697266" xlink:href="#DejaVuSans-30"/>
      <use x="1028.320312" xlink:href="#DejaVuSans-37"/>
      <use x="1091.943359" xlink:href="#DejaVuSans-27"/>
      <use x="1119.433594" xlink:href="#DejaVuSans-25"/>
      <use x="1214.453125" xlink:href="#DejaVuSans-27"/>
      <use x="1241.943359" xlink:href="#DejaVuSans-20"/>
      <use x="1273.730469" xlink:href="#DejaVuSans-6f"/>
      <use x="1334.912109" xlink:href="#DejaVuSans-66"/>
      <use x="1370.117188" xlink:href="#DejaVuSans-20"/>
      <use x="1401.904297" xlink:href="#DejaVuSans-62"/>
      <use x="1465.380859" xlink:href="#DejaVuSans-69"/>
      <use x="1493.164062" xlink:href="#DejaVuSans-74"/>
      <use x="1532.373047" xlink:href="#DejaVuSans-73"/>
     </g>
    </g>
    <g id="line2d_19">
     <path d="M 573.73125 94.129062 
L 593.73125 94.129062 
" style="fill:none;stroke:#ffa500;stroke-dasharray:5.55,2.4;stroke-dashoffset:0;stroke-width:1.5;"/>
    </g>
    <g id="text_20">
     <!-- 10'%' acc loss at (16000000/47185919)*100'%' of bits -->
     <g transform="translate(601.73125 97.629062)scale(0.1 -0.1)">
      <defs>
       <path d="M 1625 4666 
L 2156 4666 
L 531 -594 
L 0 -594 
L 1625 4666 
z
" id="DejaVuSans-2f" transform="scale(0.015625)"/>
       <path d="M 3009 3897 
L 1888 3291 
L 3009 2681 
L 2828 2375 
L 1778 3009 
L 1778 1831 
L 1422 1831 
L 1422 3009 
L 372 2375 
L 191 2681 
L 1313 3291 
L 191 3897 
L 372 4206 
L 1422 3572 
L 1422 4750 
L 1778 4750 
L 1778 3572 
L 2828 4206 
L 3009 3897 
z
" id="DejaVuSans-2a" transform="scale(0.015625)"/>
      </defs>
      <use xlink:href="#DejaVuSans-31"/>
      <use x="63.623047" xlink:href="#DejaVuSans-30"/>
      <use x="127.246094" xlink:href="#DejaVuSans-27"/>
      <use x="154.736328" xlink:href="#DejaVuSans-25"/>
      <use x="249.755859" xlink:href="#DejaVuSans-27"/>
      <use x="277.246094" xlink:href="#DejaVuSans-20"/>
      <use x="309.033203" xlink:href="#DejaVuSans-61"/>
      <use x="370.3125" xlink:href="#DejaVuSans-63"/>
      <use x="425.292969" xlink:href="#DejaVuSans-63"/>
      <use x="480.273438" xlink:href="#DejaVuSans-20"/>
      <use x="512.060547" xlink:href="#DejaVuSans-6c"/>
      <use x="539.84375" xlink:href="#DejaVuSans-6f"/>
      <use x="601.025391" xlink:href="#DejaVuSans-73"/>
      <use x="653.125" xlink:href="#DejaVuSans-73"/>
      <use x="705.224609" xlink:href="#DejaVuSans-20"/>
      <use x="737.011719" xlink:href="#DejaVuSans-61"/>
      <use x="798.291016" xlink:href="#DejaVuSans-74"/>
      <use x="837.5" xlink:href="#DejaVuSans-20"/>
      <use x="869.287109" xlink:href="#DejaVuSans-28"/>
      <use x="908.300781" xlink:href="#DejaVuSans-31"/>
      <use x="971.923828" xlink:href="#DejaVuSans-36"/>
      <use x="1035.546875" xlink:href="#DejaVuSans-30"/>
      <use x="1099.169922" xlink:href="#DejaVuSans-30"/>
      <use x="1162.792969" xlink:href="#DejaVuSans-30"/>
      <use x="1226.416016" xlink:href="#DejaVuSans-30"/>
      <use x="1290.039062" xlink:href="#DejaVuSans-30"/>
      <use x="1353.662109" xlink:href="#DejaVuSans-30"/>
      <use x="1417.285156" xlink:href="#DejaVuSans-2f"/>
      <use x="1450.976562" xlink:href="#DejaVuSans-34"/>
      <use x="1514.599609" xlink:href="#DejaVuSans-37"/>
      <use x="1578.222656" xlink:href="#DejaVuSans-31"/>
      <use x="1641.845703" xlink:href="#DejaVuSans-38"/>
      <use x="1705.46875" xlink:href="#DejaVuSans-35"/>
      <use x="1769.091797" xlink:href="#DejaVuSans-39"/>
      <use x="1832.714844" xlink:href="#DejaVuSans-31"/>
      <use x="1896.337891" xlink:href="#DejaVuSans-39"/>
      <use x="1959.960938" xlink:href="#DejaVuSans-29"/>
      <use x="1998.974609" xlink:href="#DejaVuSans-2a"/>
      <use x="2048.974609" xlink:href="#DejaVuSans-31"/>
      <use x="2112.597656" xlink:href="#DejaVuSans-30"/>
      <use x="2176.220703" xlink:href="#DejaVuSans-30"/>
      <use x="2239.84375" xlink:href="#DejaVuSans-27"/>
      <use x="2267.333984" xlink:href="#DejaVuSans-25"/>
      <use x="2362.353516" xlink:href="#DejaVuSans-27"/>
      <use x="2389.84375" xlink:href="#DejaVuSans-20"/>
      <use x="2421.630859" xlink:href="#DejaVuSans-6f"/>
      <use x="2482.8125" xlink:href="#DejaVuSans-66"/>
      <use x="2518.017578" xlink:href="#DejaVuSans-20"/>
      <use x="2549.804688" xlink:href="#DejaVuSans-62"/>
      <use x="2613.28125" xlink:href="#DejaVuSans-69"/>
      <use x="2641.064453" xlink:href="#DejaVuSans-74"/>
      <use x="2680.273438" xlink:href="#DejaVuSans-73"/>
     </g>
    </g>
   </g>
  </g>
 </g>
 <defs>
  <clipPath id="pa71e3747c8">
   <rect height="221.76" width="837" x="46.965625" y="22.318125"/>
  </clipPath>
 </defs>
</svg>